<svg width="278" height="65" viewBox="0 0 278 65" fill="none" xmlns="http://www.w3.org/2000/svg">
<path d="M13.5938 53.2969C13.5938 54.599 13.9714 55.7057 14.7266 56.6172C15.5078 57.5807 16.3411 58.0365 17.2266 57.9844C18.138 57.9323 19.3229 57.5417 20.7812 56.8125V17.2031C20.7812 15.224 20.5859 13.8177 20.1953 12.9844C19.8047 12.125 18.9453 11.6953 17.6172 11.6953V9.19531L33.9844 2.32031L35.2734 4.89844C34.1016 4.89844 33.0078 5.58854 31.9922 6.96875C30.9766 8.29688 30.4688 10.3151 30.4688 13.0234V56.5781C30.4688 56.7604 29.9089 57.138 28.7891 57.7109C27.6693 58.2578 26.25 58.8828 24.5312 59.5859C22.8125 60.2891 21.0286 60.9792 19.1797 61.6562C17.3307 62.3333 15.651 62.8932 14.1406 63.3359C12.6302 63.7786 11.5495 64 10.8984 64C9.80469 64 8.72396 63.401 7.65625 62.2031C6.58854 60.9792 5.70312 59.5599 5 57.9453C4.32292 56.3047 3.98438 54.8594 3.98438 53.6094V14.1562C3.98438 11.1875 2.68229 9.45573 0.078125 8.96094V7.20312L8.78906 2.32031C9.96094 2.78906 11.0547 3.57031 12.0703 4.66406C13.0859 5.75781 13.5938 6.78646 13.5938 7.75V53.2969ZM37.2266 8.41406V3.53125C37.2266 3.45312 37.5521 3.27083 38.2031 2.98438C38.8802 2.69792 39.6615 2.38542 40.5469 2.04688C41.4583 1.70833 42.2786 1.42188 43.0078 1.1875C43.763 0.927083 44.2318 0.796875 44.4141 0.796875C44.7786 0.796875 45.2865 1.2526 45.9375 2.16406C46.5885 3.07552 46.9141 4.01302 46.9141 4.97656V10.7969C46.9141 10.875 46.5885 11.0573 45.9375 11.3438C45.3125 11.6302 44.5703 11.9427 43.7109 12.2812C42.8516 12.6198 42.0443 12.9193 41.2891 13.1797C40.5339 13.4141 40.0391 13.5312 39.8047 13.5312C39.1797 13.5312 38.5938 12.9974 38.0469 11.9297C37.5 10.862 37.2266 9.6901 37.2266 8.41406ZM48.0469 23.8438V52.1641C48.0469 55.3932 49.1406 57.2292 51.3281 57.6719V59.4297L43.2422 64C42.0703 63.5312 40.9766 62.75 39.9609 61.6562C38.9453 60.5625 38.4375 59.5339 38.4375 58.5703V30.25C38.4375 26.9688 37.3438 25.1198 35.1562 24.7031V22.9453L43.2422 18.4141C44.4141 18.8828 45.5078 19.6641 46.5234 20.7578C47.5391 21.8516 48.0469 22.8802 48.0469 23.8438ZM82.5 56.5781C82.5 56.7865 81.9141 57.1771 80.7422 57.75C79.5964 58.2969 78.138 58.9349 76.3672 59.6641C74.5964 60.3672 72.7604 61.0573 70.8594 61.7344C68.9844 62.3854 67.3047 62.9323 65.8203 63.375C64.3359 63.7917 63.3333 64 62.8125 64C61.9271 64 60.9505 63.4401 59.8828 62.3203C58.8411 61.1745 57.9297 59.7161 57.1484 57.9453C56.3932 56.1484 56.0156 54.2734 56.0156 52.3203V18.9609C56.0156 17.5286 55.7682 16.513 55.2734 15.9141C54.8047 15.2891 53.9844 14.9766 52.8125 14.9766V12.7109C56.276 10.888 59.5573 9.13021 62.6562 7.4375C65.7552 5.71875 68.6589 4.0651 71.3672 2.47656L72.6562 5.05469C72.1094 5.3151 71.3542 5.83594 70.3906 6.61719C69.4531 7.3724 68.6589 8.15365 68.0078 8.96094C66.4193 10.9661 65.625 13.2578 65.625 15.8359V22.6328C71.1458 19.8203 74.3359 18.4141 75.1953 18.4141C76.1328 18.4141 77.1745 18.9349 78.3203 19.9766C79.4661 20.9922 80.4427 22.2812 81.25 23.8438C82.0833 25.4062 82.5 27.0078 82.5 28.6484V56.5781ZM65.625 25.9922V49.5859C65.625 54.2995 66.849 56.6562 69.2969 56.6562C70.599 56.6562 71.7708 56.2266 72.8125 55.3672V35.3672C72.8125 30.1328 71.849 27.1641 69.9219 26.4609C69.0365 26.1484 67.6042 25.9922 65.625 25.9922ZM110 18.4141C110.286 18.4141 110.951 18.8177 111.992 19.625C113.06 20.4323 114.128 21.5781 115.195 23.0625C116.263 24.5469 116.797 25.9792 116.797 27.3594V40.7969C116.797 41.7604 115.391 42.9323 112.578 44.3125C111.146 45.0156 109.518 45.7318 107.695 46.4609C105.872 47.1901 104.232 47.8021 102.773 48.2969C101.315 48.7917 100.417 49.0391 100.078 49.0391C100.078 53.1276 101.862 55.6667 105.43 56.6562C107.122 57.0729 109.232 57.2812 111.758 57.2812V59.5859C102.982 62.5286 98.3073 64 97.7344 64C96.6927 64 95.599 63.4792 94.4531 62.4375C93.3073 61.3698 92.3438 59.9766 91.5625 58.2578C90.7812 56.5391 90.3906 54.6641 90.3906 52.6328V25.7578C90.3906 25.6016 90.9896 25.263 92.1875 24.7422C93.4115 24.1953 94.9349 23.5703 96.7578 22.8672C98.5807 22.1641 100.43 21.474 102.305 20.7969C104.206 20.0938 105.872 19.5208 107.305 19.0781C108.737 18.6354 109.635 18.4141 110 18.4141ZM107.188 31.1094C107.188 29.651 106.849 28.388 106.172 27.3203C105.469 26.2786 104.57 25.7578 103.477 25.7578C102.409 25.7578 101.25 26.1615 100 26.9688V45.4453C104.792 44.1172 107.188 41.2396 107.188 36.8125V31.1094ZM133.984 53.2969C133.984 54.599 134.362 55.7057 135.117 56.6172C135.898 57.5807 136.732 58.0365 137.617 57.9844C138.529 57.9323 139.714 57.5417 141.172 56.8125V17.2031C141.172 15.224 140.977 13.8177 140.586 12.9844C140.195 12.125 139.336 11.6953 138.008 11.6953V9.19531L154.375 2.32031L155.664 4.89844C154.492 4.89844 153.398 5.58854 152.383 6.96875C151.367 8.29688 150.859 10.3151 150.859 13.0234V56.5781C150.859 56.7604 150.299 57.138 149.18 57.7109C148.06 58.2578 146.641 58.8828 144.922 59.5859C143.203 60.2891 141.419 60.9792 139.57 61.6562C137.721 62.3333 136.042 62.8932 134.531 63.3359C133.021 63.7786 131.94 64 131.289 64C130.195 64 129.115 63.401 128.047 62.2031C126.979 60.9792 126.094 59.5599 125.391 57.9453C124.714 56.3047 124.375 54.8594 124.375 53.6094V14.1562C124.375 11.1875 123.073 9.45573 120.469 8.96094V7.20312L129.18 2.32031C130.352 2.78906 131.445 3.57031 132.461 4.66406C133.477 5.75781 133.984 6.78646 133.984 7.75V53.2969ZM173.594 18.4141C173.88 18.4141 174.544 18.8177 175.586 19.625C176.654 20.4323 177.721 21.5781 178.789 23.0625C179.857 24.5469 180.391 25.9792 180.391 27.3594V40.7969C180.391 41.7604 178.984 42.9323 176.172 44.3125C174.74 45.0156 173.112 45.7318 171.289 46.4609C169.466 47.1901 167.826 47.8021 166.367 48.2969C164.909 48.7917 164.01 49.0391 163.672 49.0391C163.672 53.1276 165.456 55.6667 169.023 56.6562C170.716 57.0729 172.826 57.2812 175.352 57.2812V59.5859C166.576 62.5286 161.901 64 161.328 64C160.286 64 159.193 63.4792 158.047 62.4375C156.901 61.3698 155.938 59.9766 155.156 58.2578C154.375 56.5391 153.984 54.6641 153.984 52.6328V25.7578C153.984 25.6016 154.583 25.263 155.781 24.7422C157.005 24.1953 158.529 23.5703 160.352 22.8672C162.174 22.1641 164.023 21.474 165.898 20.7969C167.799 20.0938 169.466 19.5208 170.898 19.0781C172.331 18.6354 173.229 18.4141 173.594 18.4141ZM170.781 31.1094C170.781 29.651 170.443 28.388 169.766 27.3203C169.062 26.2786 168.164 25.7578 167.07 25.7578C166.003 25.7578 164.844 26.1615 163.594 26.9688V45.4453C168.385 44.1172 170.781 41.2396 170.781 36.8125V31.1094ZM184.062 24.9766V23.2188L192.852 18.4141C193.06 18.4661 193.268 18.5312 193.477 18.6094C193.711 18.6615 193.958 18.7396 194.219 18.8438C194.74 19.026 195.43 19.5469 196.289 20.4062C197.148 21.2656 197.578 22.2292 197.578 23.2969C197.76 23.2188 199.023 22.3724 201.367 20.7578C203.633 19.1953 205.091 18.4141 205.742 18.4141C206.888 18.4141 207.995 18.9479 209.062 20.0156C210.156 21.0833 211.042 22.3594 211.719 23.8438C212.422 25.3021 212.773 26.6562 212.773 27.9062V31.8516L204.531 36.4609L203.164 35.3672C203.164 30.9141 202.747 28.349 201.914 27.6719C200.924 26.9948 199.479 26.6562 197.578 26.6562V52.1641C197.578 55.3932 198.672 57.2292 200.859 57.6719V59.4297L192.773 64C191.602 63.5312 190.508 62.75 189.492 61.6562C188.477 60.5625 187.969 59.5339 187.969 58.5703V32.0078C187.969 29.6641 187.552 27.9062 186.719 26.7344C185.911 25.5625 185.026 24.9766 184.062 24.9766ZM222.031 46.4609C220.703 46.4609 219.557 45.4583 218.594 43.4531C217.63 41.4219 217.148 38.9349 217.148 35.9922V27.3594C217.148 26.9427 217.695 26.3828 218.789 25.6797C219.909 24.9505 221.302 24.1693 222.969 23.3359C224.661 22.5026 226.38 21.7214 228.125 20.9922C229.87 20.237 231.406 19.625 232.734 19.1562C234.062 18.6615 234.896 18.4141 235.234 18.4141C235.703 18.4141 236.12 18.7005 236.484 19.2734C236.875 19.8203 237.174 20.263 237.383 20.6016C237.669 21.0703 238.008 21.6693 238.398 22.3984C238.789 23.1276 239.18 23.7917 239.57 24.3906C240.221 25.6667 241.094 26.3047 242.188 26.3047V27.9062C241.771 28.0885 241.276 28.3229 240.703 28.6094C240.13 28.8958 239.505 29.2214 238.828 29.5859C235.443 31.4609 233.607 32.3984 233.32 32.3984C232.513 32.3984 231.641 31.0833 230.703 28.4531C229.766 25.849 228.932 24.5469 228.203 24.5469C227.24 24.5469 226.758 25.3542 226.758 26.9688V36.8125C226.758 38.9479 227.24 40.0156 228.203 40.0156C228.438 40.0156 230.091 39.3125 233.164 37.9062C236.289 36.526 238.151 35.8359 238.75 35.8359C240.052 35.8359 241.185 36.8646 242.148 38.9219C243.138 41.0312 243.633 43.6615 243.633 46.8125V55.8359C243.633 56.2526 243.021 56.8255 241.797 57.5547C240.599 58.2578 239.076 59.026 237.227 59.8594C235.404 60.6927 233.542 61.487 231.641 62.2422C229.74 62.9714 228.073 63.5703 226.641 64.0391C225.208 64.5339 224.31 64.7812 223.945 64.7812C223.581 64.7812 223.229 64.4427 222.891 63.7656C222.474 62.9583 221.979 61.9167 221.406 60.6406C220.833 59.3646 220.247 58.2188 219.648 57.2031C218.945 55.9271 218.06 55.2891 216.992 55.2891V53.6875C217.435 53.4792 217.93 53.2448 218.477 52.9844C219.049 52.6979 219.701 52.3724 220.43 52.0078C223.789 50.1328 225.599 49.1953 225.859 49.1953C226.667 49.1953 227.669 50.7708 228.867 53.9219C230.065 57.0729 231.042 58.6484 231.797 58.6484C232.318 58.6484 232.812 58.4401 233.281 58.0234C233.776 57.5807 234.023 56.9818 234.023 56.2266V46.2266C234.023 43.8307 233.359 42.6328 232.031 42.6328C231.562 42.6328 229.883 43.2708 226.992 44.5469C224.102 45.8229 222.448 46.4609 222.031 46.4609ZM270.391 18.4141C270.677 18.4141 271.341 18.8177 272.383 19.625C273.451 20.4323 274.518 21.5781 275.586 23.0625C276.654 24.5469 277.188 25.9792 277.188 27.3594V40.7969C277.188 41.7604 275.781 42.9323 272.969 44.3125C271.536 45.0156 269.909 45.7318 268.086 46.4609C266.263 47.1901 264.622 47.8021 263.164 48.2969C261.706 48.7917 260.807 49.0391 260.469 49.0391C260.469 53.1276 262.253 55.6667 265.82 56.6562C267.513 57.0729 269.622 57.2812 272.148 57.2812V59.5859C263.372 62.5286 258.698 64 258.125 64C257.083 64 255.99 63.4792 254.844 62.4375C253.698 61.3698 252.734 59.9766 251.953 58.2578C251.172 56.5391 250.781 54.6641 250.781 52.6328V25.7578C250.781 25.6016 251.38 25.263 252.578 24.7422C253.802 24.1953 255.326 23.5703 257.148 22.8672C258.971 22.1641 260.82 21.474 262.695 20.7969C264.596 20.0938 266.263 19.5208 267.695 19.0781C269.128 18.6354 270.026 18.4141 270.391 18.4141ZM267.578 31.1094C267.578 29.651 267.24 28.388 266.562 27.3203C265.859 26.2786 264.961 25.7578 263.867 25.7578C262.799 25.7578 261.641 26.1615 260.391 26.9688V45.4453C265.182 44.1172 267.578 41.2396 267.578 36.8125V31.1094Z" fill="black"/>
</svg>
